0
SECTION
2
HEADER
0
ENDSEC
0
SECTION
2
TABLES
0
ENDSEC
0
SECTION
2
ENTITIES
0
LINE
8
VIGAS
10
0.0
20
0.0
30
0.0
11
0.0
21
4.5
31
0.0
0
TEXT
8
TEXTOS
10
0.0
20
2.25
30
0.0
40
0.18
1
B1
0
LINE
8
VIGAS
10
4.0
20
0.0
30
0.0
11
4.0
21
4.5
31
0.0
0
TEXT
8
TEXTOS
10
4.0
20
2.25
30
0.0
40
0.18
1
B2
0
LINE
8
VIGAS
10
8.0
20
0.0
30
0.0
11
8.0
21
4.5
31
0.0
0
TEXT
8
TEXTOS
10
8.0
20
2.25
30
0.0
40
0.18
1
B3
0
LINE
8
VIGAS
10
0.0
20
0.0
30
0.0
11
4.0
21
0.0
31
0.0
0
TEXT
8
TEXTOS
10
2.0
20
0.0
30
0.0
40
0.18
1
B4
0
LINE
8
VIGAS
10
4.0
20
0.0
30
0.0
11
8.0
21
0.0
31
0.0
0
TEXT
8
TEXTOS
10
6.0
20
0.0
30
0.0
40
0.18
1
B5
0
LINE
8
VIGAS
10
0.0
20
4.5
30
0.0
11
4.0
21
4.5
31
0.0
0
TEXT
8
TEXTOS
10
2.0
20
4.5
30
0.0
40
0.18
1
B6
0
LINE
8
VIGAS
10
4.0
20
4.5
30
0.0
11
8.0
21
4.5
31
0.0
0
TEXT
8
TEXTOS
10
6.0
20
4.5
30
0.0
40
0.18
1
B7
0
CIRCLE
8
PILARES
10
0.0
20
0.0
30
0.0
40
0.1
0
TEXT
8
TEXTOS
10
0.12
20
0.12
30
0.0
40
0.18
1
P1
0
CIRCLE
8
PILARES
10
4.0
20
0.0
30
0.0
40
0.1
0
TEXT
8
TEXTOS
10
4.12
20
0.12
30
0.0
40
0.18
1
P2
0
CIRCLE
8
PILARES
10
8.0
20
0.0
30
0.0
40
0.1
0
TEXT
8
TEXTOS
10
8.12
20
0.12
30
0.0
40
0.18
1
P3
0
CIRCLE
8
PILARES
10
0.0
20
4.5
30
0.0
40
0.1
0
TEXT
8
TEXTOS
10
0.12
20
4.62
30
0.0
40
0.18
1
P4
0
CIRCLE
8
PILARES
10
4.0
20
4.5
30
0.0
40
0.1
0
TEXT
8
TEXTOS
10
4.12
20
4.62
30
0.0
40
0.18
1
P5
0
CIRCLE
8
PILARES
10
8.0
20
4.5
30
0.0
40
0.1
0
TEXT
8
TEXTOS
10
8.12
20
4.62
30
0.0
40
0.18
1
P6
0
LINE
8
SAPATAS
10
-0.5
20
-0.5
30
0.0
11
0.5
21
-0.5
31
0.0
0
LINE
8
SAPATAS
10
0.5
20
-0.5
30
0.0
11
0.5
21
0.5
31
0.0
0
LINE
8
SAPATAS
10
0.5
20
0.5
30
0.0
11
-0.5
21
0.5
31
0.0
0
LINE
8
SAPATAS
10
-0.5
20
0.5
30
0.0
11
-0.5
21
-0.5
31
0.0
0
TEXT
8
TEXTOS
10
-0.2
20
-0.35
30
0.0
40
0.14
1
S_P1
0
LINE
8
SAPATAS
10
3.5
20
-0.5
30
0.0
11
4.5
21
-0.5
31
0.0
0
LINE
8
SAPATAS
10
4.5
20
-0.5
30
0.0
11
4.5
21
0.5
31
0.0
0
LINE
8
SAPATAS
10
4.5
20
0.5
30
0.0
11
3.5
21
0.5
31
0.0
0
LINE
8
SAPATAS
10
3.5
20
0.5
30
0.0
11
3.5
21
-0.5
31
0.0
0
TEXT
8
TEXTOS
10
3.8
20
-0.35
30
0.0
40
0.14
1
S_P2
0
LINE
8
SAPATAS
10
7.5
20
-0.5
30
0.0
11
8.5
21
-0.5
31
0.0
0
LINE
8
SAPATAS
10
8.5
20
-0.5
30
0.0
11
8.5
21
0.5
31
0.0
0
LINE
8
SAPATAS
10
8.5
20
0.5
30
0.0
11
7.5
21
0.5
31
0.0
0
LINE
8
SAPATAS
10
7.5
20
0.5
30
0.0
11
7.5
21
-0.5
31
0.0
0
TEXT
8
TEXTOS
10
7.8
20
-0.35
30
0.0
40
0.14
1
S_P3
0
LINE
8
SAPATAS
10
-0.5
20
4.0
30
0.0
11
0.5
21
4.0
31
0.0
0
LINE
8
SAPATAS
10
0.5
20
4.0
30
0.0
11
0.5
21
5.0
31
0.0
0
LINE
8
SAPATAS
10
0.5
20
5.0
30
0.0
11
-0.5
21
5.0
31
0.0
0
LINE
8
SAPATAS
10
-0.5
20
5.0
30
0.0
11
-0.5
21
4.0
31
0.0
0
TEXT
8
TEXTOS
10
-0.2
20
4.15
30
0.0
40
0.14
1
S_P4
0
LINE
8
SAPATAS
10
3.5
20
4.0
30
0.0
11
4.5
21
4.0
31
0.0
0
LINE
8
SAPATAS
10
4.5
20
4.0
30
0.0
11
4.5
21
5.0
31
0.0
0
LINE
8
SAPATAS
10
4.5
20
5.0
30
0.0
11
3.5
21
5.0
31
0.0
0
LINE
8
SAPATAS
10
3.5
20
5.0
30
0.0
11
3.5
21
4.0
31
0.0
0
TEXT
8
TEXTOS
10
3.8
20
4.15
30
0.0
40
0.14
1
S_P5
0
LINE
8
SAPATAS
10
7.5
20
4.0
30
0.0
11
8.5
21
4.0
31
0.0
0
LINE
8
SAPATAS
10
8.5
20
4.0
30
0.0
11
8.5
21
5.0
31
0.0
0
LINE
8
SAPATAS
10
8.5
20
5.0
30
0.0
11
7.5
21
5.0
31
0.0
0
LINE
8
SAPATAS
10
7.5
20
5.0
30
0.0
11
7.5
21
4.0
31
0.0
0
TEXT
8
TEXTOS
10
7.8
20
4.15
30
0.0
40
0.14
1
S_P6
0
LINE
8
AMARRACAO
10
4.0
20
0.0
30
0.0
11
0.0
21
0.0
31
0.0
0
TEXT
8
TEXTOS
10
2.0
20
-0.18
30
0.0
40
0.14
1
TV_S_P2_1
0
LINE
8
AMARRACAO
10
4.0
20
0.0
30
0.0
11
8.0
21
0.0
31
0.0
0
TEXT
8
TEXTOS
10
6.0
20
-0.18
30
0.0
40
0.14
1
TV_S_P2_2
0
LINE
8
AMARRACAO
10
4.0
20
4.5
30
0.0
11
4.0
21
0.0
31
0.0
0
TEXT
8
TEXTOS
10
4.0
20
2.07
30
0.0
40
0.14
1
TV_S_P5_1
0
ENDSEC
0
EOF